<svg width="164" height="164" viewBox="0 0 164 164" fill="none" xmlns="http://www.w3.org/2000/svg">
<circle cx="82" cy="82" r="74.5" fill="#111111" stroke="#383232" stroke-width="15"/>
<mask id="path-2-inside-1_14_191" fill="white">
<path d="M82 0C92.7684 1.28412e-07 103.431 2.12099 113.38 6.24188C123.329 10.3628 132.368 16.4028 139.983 24.0172C147.597 31.6317 153.637 40.6713 157.758 50.62C161.879 60.5687 164 71.2316 164 82L82 82L82 0Z"/>
</mask>
<path d="M82 0C92.7684 1.28412e-07 103.431 2.12099 113.38 6.24188C123.329 10.3628 132.368 16.4028 139.983 24.0172C147.597 31.6317 153.637 40.6713 157.758 50.62C161.879 60.5687 164 71.2316 164 82L82 82L82 0Z" fill="#111111" stroke="#FFB300" stroke-width="30" mask="url(#path-2-inside-1_14_191)"/>
<ellipse cx="81.9999" cy="82" rx="72.6286" ry="71.9592" fill="#111111"/>
<path d="M67.4719 93.8898H49.0081V90.0055L55.6384 83.3029C57.6016 81.2915 58.8844 79.9003 59.4866 79.1295C60.0888 78.3466 60.5224 77.624 60.7874 76.9615C61.0523 76.2991 61.1848 75.6126 61.1848 74.902C61.1848 73.8421 60.8897 73.0532 60.2996 72.5353C59.7214 72.0174 58.9446 71.7584 57.969 71.7584C56.9452 71.7584 55.9516 71.9933 54.988 72.463C54.0245 72.9327 53.0188 73.6012 51.9709 74.4684L48.9358 70.8732C50.2366 69.7651 51.3145 68.9822 52.1697 68.5245C53.0248 68.0669 53.9583 67.7176 54.97 67.4767C55.9817 67.2238 57.1139 67.0973 58.3665 67.0973C60.0165 67.0973 61.4739 67.3984 62.7385 68.0006C64.0032 68.6028 64.9848 69.4459 65.6833 70.5299C66.3819 71.6139 66.7312 72.8545 66.7312 74.2516C66.7312 75.4681 66.5144 76.6123 66.0808 77.6842C65.6593 78.7441 64.9968 79.8341 64.0935 80.9542C63.2022 82.0743 61.6244 83.6702 59.3601 85.7418L55.9636 88.9396V89.1925H67.4719V93.8898ZM88.4651 80.6832C88.4651 85.2962 87.7063 88.7107 86.1887 90.9269C84.6832 93.143 82.3586 94.2511 79.2151 94.2511C76.1679 94.2511 73.8674 93.1069 72.3137 90.8185C70.7721 88.5301 70.0012 85.1517 70.0012 80.6832C70.0012 76.0221 70.754 72.5895 72.2595 70.3854C73.7651 68.1692 76.0836 67.0612 79.2151 67.0612C82.2623 67.0612 84.5627 68.2174 86.1165 70.5299C87.6822 72.8424 88.4651 76.2268 88.4651 80.6832ZM75.5476 80.6832C75.5476 83.9231 75.8246 86.2477 76.3787 87.6569C76.9447 89.054 77.8902 89.7526 79.2151 89.7526C80.5159 89.7526 81.4553 89.042 82.0334 87.6207C82.6116 86.1995 82.9006 83.887 82.9006 80.6832C82.9006 77.4433 82.6056 75.1188 82.0154 73.7096C81.4373 72.2884 80.5038 71.5778 79.2151 71.5778C77.9023 71.5778 76.9628 72.2884 76.3967 73.7096C75.8306 75.1188 75.5476 77.4433 75.5476 80.6832ZM95.4929 75.3898C95.4929 76.9194 95.6254 78.0636 95.8904 78.8224C96.1674 79.5691 96.607 79.9425 97.2092 79.9425C98.3655 79.9425 98.9436 78.4249 98.9436 75.3898C98.9436 72.3787 98.3655 70.8732 97.2092 70.8732C96.607 70.8732 96.1674 71.2465 95.8904 71.9933C95.6254 72.728 95.4929 73.8601 95.4929 75.3898ZM103.496 75.3536C103.496 78.1238 102.96 80.2075 101.888 81.6046C100.816 82.9897 99.2447 83.6823 97.1731 83.6823C95.1858 83.6823 93.6501 82.9716 92.5662 81.5504C91.4822 80.1171 90.9402 78.0516 90.9402 75.3536C90.9402 69.8494 93.0178 67.0973 97.1731 67.0973C99.2086 67.0973 100.768 67.8139 101.852 69.2472C102.948 70.6684 103.496 72.7039 103.496 75.3536ZM115.926 67.4767L101.274 93.8898H96.9382L111.59 67.4767H115.926ZM113.993 85.9406C113.993 87.4702 114.125 88.6144 114.39 89.3732C114.667 90.1199 115.107 90.4933 115.709 90.4933C116.865 90.4933 117.444 88.9757 117.444 85.9406C117.444 82.9295 116.865 81.424 115.709 81.424C115.107 81.424 114.667 81.7973 114.39 82.5441C114.125 83.2788 113.993 84.4109 113.993 85.9406ZM121.996 85.9044C121.996 88.6626 121.46 90.7402 120.388 92.1373C119.316 93.5224 117.745 94.215 115.673 94.215C113.686 94.215 112.15 93.5044 111.066 92.0831C109.982 90.6499 109.44 88.5903 109.44 85.9044C109.44 80.4002 111.518 77.6481 115.673 77.6481C117.709 77.6481 119.268 78.3647 120.352 79.798C121.448 81.2192 121.996 83.2547 121.996 85.9044Z" fill="white"/>
</svg>
