<svg width="167" height="167" viewBox="0 0 167 167" fill="none" xmlns="http://www.w3.org/2000/svg">
<circle cx="83.5" cy="83.5" r="76" fill="#111111" stroke="#383232" stroke-width="15"/>
<mask id="path-2-inside-1_14_120" fill="white">
<path d="M83.5 0C94.4654 1.30761e-07 105.323 2.15979 115.454 6.35606C125.585 10.5523 134.79 16.7029 142.543 24.4566C150.297 32.2103 156.448 41.4153 160.644 51.5459C164.84 61.6766 167 72.5346 167 83.5L83.5 83.5L83.5 0Z"/>
</mask>
<path d="M83.5 0C94.4654 1.30761e-07 105.323 2.15979 115.454 6.35606C125.585 10.5523 134.79 16.7029 142.543 24.4566C150.297 32.2103 156.448 41.4153 160.644 51.5459C164.84 61.6766 167 72.5346 167 83.5L83.5 83.5L83.5 0Z" fill="#111111" stroke="#FFB300" stroke-width="30" mask="url(#path-2-inside-1_14_120)"/>
<ellipse cx="83.4999" cy="83.5" rx="73.9571" ry="73.2755" fill="#111111"/>
<path d="M68.3413 94.8939H49.8774V91.0096L56.5078 84.3069C58.471 82.2956 59.7537 80.9044 60.356 80.1336C60.9582 79.3507 61.3918 78.6281 61.6567 77.9656C61.9217 77.3032 62.0542 76.6167 62.0542 75.9061C62.0542 74.8462 61.7591 74.0573 61.1689 73.5394C60.5908 73.0215 59.814 72.7625 58.8384 72.7625C57.8146 72.7625 56.821 72.9974 55.8574 73.4671C54.8939 73.9368 53.8882 74.6053 52.8403 75.4725L49.8052 71.8773C51.106 70.7692 52.1839 69.9863 53.0391 69.5286C53.8942 69.0709 54.8276 68.7217 55.8394 68.4808C56.8511 68.2278 57.9832 68.1014 59.2358 68.1014C60.8859 68.1014 62.3433 68.4025 63.6079 69.0047C64.8726 69.6069 65.8542 70.45 66.5527 71.534C67.2513 72.618 67.6006 73.8585 67.6006 75.2557C67.6006 76.4721 67.3838 77.6164 66.9502 78.6883C66.5286 79.7482 65.8662 80.8382 64.9629 81.9583C64.0716 83.0784 62.4938 84.6743 60.2295 86.7459L56.833 89.9437V90.1966H68.3413V94.8939ZM80.6265 78.0198C83.1799 78.0198 85.2093 78.7365 86.7148 80.1697C88.2324 81.603 88.9912 83.5662 88.9912 86.0594C88.9912 89.0102 88.0819 91.2806 86.2632 92.8704C84.4445 94.4603 81.8429 95.2552 78.4585 95.2552C75.5197 95.2552 73.147 94.7794 71.3403 93.8279V89.0042C72.2918 89.5101 73.3999 89.9256 74.6646 90.2508C75.9292 90.5639 77.1276 90.7205 78.2598 90.7205C81.6683 90.7205 83.3726 89.3234 83.3726 86.5291C83.3726 83.8673 81.6081 82.5364 78.0791 82.5364C77.4408 82.5364 76.7362 82.6027 75.9653 82.7352C75.1945 82.8556 74.5682 82.9881 74.0864 83.1326L71.8643 81.9402L72.8579 68.4808H87.1846V73.2142H77.7539L77.2661 78.3992L77.8984 78.2728C78.6331 78.1041 79.5425 78.0198 80.6265 78.0198ZM96.3623 76.3939C96.3623 77.9235 96.4948 79.0677 96.7598 79.8265C97.0368 80.5732 97.4764 80.9466 98.0786 80.9466C99.2349 80.9466 99.813 79.429 99.813 76.3939C99.813 73.3828 99.2349 71.8773 98.0786 71.8773C97.4764 71.8773 97.0368 72.2506 96.7598 72.9974C96.4948 73.7321 96.3623 74.8642 96.3623 76.3939ZM104.366 76.3577C104.366 79.1279 103.83 81.2116 102.758 82.6087C101.686 83.9938 100.114 84.6863 98.0425 84.6863C96.0552 84.6863 94.5195 83.9757 93.4355 82.5545C92.3516 81.1212 91.8096 79.0556 91.8096 76.3577C91.8096 70.8535 93.8872 68.1014 98.0425 68.1014C100.078 68.1014 101.638 68.818 102.722 70.2513C103.818 71.6725 104.366 73.708 104.366 76.3577ZM116.795 68.4808L102.144 94.8939H97.8076L112.459 68.4808H116.795ZM114.862 86.9446C114.862 88.4743 114.995 89.6185 115.26 90.3773C115.537 91.124 115.976 91.4974 116.579 91.4974C117.735 91.4974 118.313 89.9798 118.313 86.9446C118.313 83.9336 117.735 82.428 116.579 82.428C115.976 82.428 115.537 82.8014 115.26 83.5482C114.995 84.2829 114.862 85.415 114.862 86.9446ZM122.866 86.9085C122.866 89.6666 122.33 91.7443 121.258 93.1414C120.186 94.5265 118.614 95.2191 116.542 95.2191C114.555 95.2191 113.02 94.5084 111.936 93.0872C110.852 91.654 110.31 89.5944 110.31 86.9085C110.31 81.4043 112.387 78.6522 116.542 78.6522C118.578 78.6522 120.138 79.3688 121.222 80.8021C122.318 82.2233 122.866 84.2588 122.866 86.9085Z" fill="white"/>
</svg>
