<svg width="167" height="167" viewBox="0 0 167 167" fill="none" xmlns="http://www.w3.org/2000/svg">
<circle cx="83.5" cy="83.5" r="76" fill="#111111" stroke="#383232" stroke-width="15"/>
<mask id="path-2-inside-1_14_123" fill="white">
<path d="M83.5 0C105.646 2.64083e-07 126.884 8.79728 142.543 24.4565C158.203 40.1158 167 61.3543 167 83.4999C167 105.645 158.203 126.884 142.544 142.543C126.884 158.203 105.646 167 83.5003 167L83.5 83.5L83.5 0Z"/>
</mask>
<path d="M83.5 0C105.646 2.64083e-07 126.884 8.79728 142.543 24.4565C158.203 40.1158 167 61.3543 167 83.4999C167 105.645 158.203 126.884 142.544 142.543C126.884 158.203 105.646 167 83.5003 167L83.5 83.5L83.5 0Z" fill="#111111" stroke="#FFB300" stroke-width="30" mask="url(#path-2-inside-1_14_123)"/>
<ellipse cx="83.5" cy="83.5" rx="73.9571" ry="73.2755" fill="#111111"/>
<path d="M64.26 78.0199C66.8134 78.0199 68.8429 78.7365 70.3484 80.1698C71.866 81.6031 72.6248 83.5663 72.6248 86.0594C72.6248 89.0103 71.7154 91.2806 69.8967 92.8705C68.078 94.4603 65.4765 95.2552 62.092 95.2552C59.1532 95.2552 56.7805 94.7795 54.9739 93.828V89.0043C55.9254 89.5101 57.0334 89.9257 58.2981 90.2509C59.5627 90.564 60.7611 90.7206 61.8933 90.7206C65.3018 90.7206 67.0061 89.3234 67.0061 86.5292C67.0061 83.8674 65.2416 82.5365 61.7126 82.5365C61.0743 82.5365 60.3697 82.6027 59.5989 82.7352C58.828 82.8557 58.2017 82.9882 57.72 83.1327L55.4978 81.9403L56.4915 68.4808H70.8181V73.2142H61.3875L60.8997 78.3993L61.532 78.2728C62.2667 78.1042 63.176 78.0199 64.26 78.0199ZM94.1057 81.6874C94.1057 86.3003 93.3469 89.7149 91.8293 91.931C90.3238 94.1472 87.9993 95.2552 84.8557 95.2552C81.8085 95.2552 79.5081 94.111 77.9543 91.8226C76.4127 89.5342 75.6418 86.1558 75.6418 81.6874C75.6418 77.0262 76.3946 73.5936 77.9001 71.3895C79.4057 69.1734 81.7242 68.0653 84.8557 68.0653C87.9029 68.0653 90.2034 69.2216 91.7571 71.5341C93.3228 73.8466 94.1057 77.231 94.1057 81.6874ZM81.1882 81.6874C81.1882 84.9273 81.4653 87.2518 82.0193 88.661C82.5854 90.0581 83.5308 90.7567 84.8557 90.7567C86.1565 90.7567 87.0959 90.0461 87.6741 88.6249C88.2522 87.2037 88.5413 84.8912 88.5413 81.6874C88.5413 78.4475 88.2462 76.1229 87.656 74.7137C87.0779 73.2925 86.1444 72.5819 84.8557 72.5819C83.5429 72.5819 82.6034 73.2925 82.0374 74.7137C81.4713 76.1229 81.1882 78.4475 81.1882 81.6874ZM101.134 76.3939C101.134 77.9235 101.266 79.0677 101.531 79.8265C101.808 80.5733 102.248 80.9467 102.85 80.9467C104.006 80.9467 104.584 79.4291 104.584 76.3939C104.584 73.3829 104.006 71.8773 102.85 71.8773C102.248 71.8773 101.808 72.2507 101.531 72.9974C101.266 73.7321 101.134 74.8643 101.134 76.3939ZM109.137 76.3578C109.137 79.128 108.601 81.2116 107.529 82.6088C106.457 83.9939 104.885 84.6864 102.814 84.6864C100.826 84.6864 99.2908 83.9758 98.2068 82.5546C97.1228 81.1213 96.5808 79.0557 96.5808 76.3578C96.5808 70.8536 98.6584 68.1014 102.814 68.1014C104.849 68.1014 106.409 68.8181 107.493 70.2513C108.589 71.6726 109.137 73.708 109.137 76.3578ZM121.567 68.4808L106.915 94.8939H102.579L117.231 68.4808H121.567ZM119.634 86.9447C119.634 88.4743 119.766 89.6185 120.031 90.3773C120.308 91.1241 120.748 91.4974 121.35 91.4974C122.506 91.4974 123.084 89.9799 123.084 86.9447C123.084 83.9336 122.506 82.4281 121.35 82.4281C120.748 82.4281 120.308 82.8015 120.031 83.5482C119.766 84.2829 119.634 85.4151 119.634 86.9447ZM127.637 86.9086C127.637 89.6667 127.101 91.7443 126.029 93.1415C124.957 94.5266 123.385 95.2191 121.314 95.2191C119.326 95.2191 117.791 94.5085 116.707 93.0873C115.623 91.654 115.081 89.5944 115.081 86.9086C115.081 81.4043 117.158 78.6522 121.314 78.6522C123.349 78.6522 124.909 79.3689 125.993 80.8021C127.089 82.2233 127.637 84.2588 127.637 86.9086Z" fill="white"/>
</svg>
