<svg width="162" height="162" viewBox="0 0 162 162" fill="none" xmlns="http://www.w3.org/2000/svg">
<circle cx="81" cy="81" r="73.5" fill="#111111" stroke="#383232" stroke-width="15"/>
<mask id="path-2-inside-1_14_247" fill="white">
<path d="M81 0C95.5858 1.73934e-07 109.901 3.93846 122.434 11.3995C134.967 18.8606 145.253 29.5674 152.206 42.3895C159.158 55.2116 162.52 69.6731 161.935 84.2472C161.35 98.8212 156.841 112.967 148.884 125.191C140.926 137.415 129.815 147.263 116.725 153.696C103.634 160.129 89.0498 162.908 74.5109 161.74C59.972 160.571 46.0184 155.499 34.1233 147.057C22.2283 138.616 12.8332 127.12 6.93015 113.782L81 81L81 0Z"/>
</mask>
<path d="M81 0C95.5858 1.73934e-07 109.901 3.93846 122.434 11.3995C134.967 18.8606 145.253 29.5674 152.206 42.3895C159.158 55.2116 162.52 69.6731 161.935 84.2472C161.35 98.8212 156.841 112.967 148.884 125.191C140.926 137.415 129.815 147.263 116.725 153.696C103.634 160.129 89.0498 162.908 74.5109 161.74C59.972 160.571 46.0184 155.499 34.1233 147.057C22.2283 138.616 12.8332 127.12 6.93015 113.782L81 81L81 0Z" fill="#111111" stroke="#FFB300" stroke-width="30" mask="url(#path-2-inside-1_14_247)"/>
<ellipse cx="81.0002" cy="81.0001" rx="71.7429" ry="71.0816" fill="#111111"/>
<path d="M51.4631 85.3442C51.4631 80.117 52.5652 76.2267 54.7693 73.6733C56.9854 71.12 60.2976 69.8433 64.7058 69.8433C66.2113 69.8433 67.3917 69.9336 68.2468 70.1143V74.5767C67.1749 74.3358 66.115 74.2153 65.0671 74.2153C63.1521 74.2153 61.5863 74.5044 60.3699 75.0825C59.1654 75.6606 58.2621 76.5158 57.6599 77.6479C57.0577 78.7801 56.7024 80.388 56.594 82.4717H56.8289C58.0212 80.4242 59.9303 79.4004 62.5559 79.4004C64.9166 79.4004 66.7654 80.1411 68.1023 81.6226C69.4392 83.104 70.1077 85.1515 70.1077 87.7651C70.1077 90.5835 69.3127 92.8177 67.7229 94.4678C66.1331 96.1058 63.929 96.9248 61.1106 96.9248C59.1594 96.9248 57.4552 96.4731 55.9978 95.5698C54.5525 94.6665 53.4324 93.3477 52.6375 91.6133C51.8546 89.8789 51.4631 87.7892 51.4631 85.3442ZM61.0022 92.4624C62.1946 92.4624 63.1099 92.0649 63.7483 91.27C64.3866 90.4631 64.7058 89.3188 64.7058 87.8374C64.7058 86.5487 64.4047 85.5369 63.8025 84.8022C63.2123 84.0555 62.315 83.6821 61.1106 83.6821C59.9784 83.6821 59.0089 84.0495 58.2019 84.7842C57.407 85.5189 57.0095 86.374 57.0095 87.3496C57.0095 88.7829 57.3829 89.9933 58.1296 90.981C58.8884 91.9686 59.8459 92.4624 61.0022 92.4624ZM91.1008 83.3569C91.1008 87.9699 90.342 91.3844 88.8245 93.6006C87.3189 95.8167 84.9944 96.9248 81.8508 96.9248C78.8036 96.9248 76.5032 95.7806 74.9495 93.4922C73.4078 91.2038 72.637 87.8254 72.637 83.3569C72.637 78.6958 73.3897 75.2632 74.8953 73.0591C76.4008 70.8429 78.7193 69.7349 81.8508 69.7349C84.898 69.7349 87.1985 70.8911 88.7522 73.2036C90.318 75.5161 91.1008 78.9006 91.1008 83.3569ZM78.1833 83.3569C78.1833 86.5968 78.4604 88.9214 79.0144 90.3306C79.5805 91.7277 80.526 92.4263 81.8508 92.4263C83.1516 92.4263 84.0911 91.7157 84.6692 90.2944C85.2473 88.8732 85.5364 86.5607 85.5364 83.3569C85.5364 80.117 85.2413 77.7925 84.6511 76.3833C84.073 74.9621 83.1396 74.2515 81.8508 74.2515C80.538 74.2515 79.5986 74.9621 79.0325 76.3833C78.4664 77.7925 78.1833 80.117 78.1833 83.3569ZM98.1287 78.0635C98.1287 79.5931 98.2611 80.7373 98.5261 81.4961C98.8031 82.2428 99.2428 82.6162 99.845 82.6162C101.001 82.6162 101.579 81.0986 101.579 78.0635C101.579 75.0524 101.001 73.5469 99.845 73.5469C99.2428 73.5469 98.8031 73.9202 98.5261 74.667C98.2611 75.4017 98.1287 76.5339 98.1287 78.0635ZM106.132 78.0273C106.132 80.7975 105.596 82.8812 104.524 84.2783C103.452 85.6634 101.88 86.356 99.8088 86.356C97.8215 86.356 96.2859 85.6453 95.2019 84.2241C94.1179 82.7909 93.5759 80.7253 93.5759 78.0273C93.5759 72.5231 95.6536 69.771 99.8088 69.771C101.844 69.771 103.404 70.4876 104.488 71.9209C105.584 73.3421 106.132 75.3776 106.132 78.0273ZM118.562 70.1504L103.91 96.5635H99.574L114.226 70.1504H118.562ZM116.629 88.6143C116.629 90.1439 116.761 91.2881 117.026 92.0469C117.303 92.7936 117.743 93.167 118.345 93.167C119.501 93.167 120.079 91.6494 120.079 88.6143C120.079 85.6032 119.501 84.0977 118.345 84.0977C117.743 84.0977 117.303 84.471 117.026 85.2178C116.761 85.9525 116.629 87.0846 116.629 88.6143ZM124.632 88.5781C124.632 91.3363 124.096 93.4139 123.024 94.811C121.952 96.1961 120.38 96.8887 118.309 96.8887C116.322 96.8887 114.786 96.1781 113.702 94.7568C112.618 93.3236 112.076 91.264 112.076 88.5781C112.076 83.0739 114.154 80.3218 118.309 80.3218C120.344 80.3218 121.904 81.0384 122.988 82.4717C124.084 83.8929 124.632 85.9284 124.632 88.5781Z" fill="white"/>
</svg>
