<svg width="167" height="167" viewBox="0 0 167 167" fill="none" xmlns="http://www.w3.org/2000/svg">
<circle cx="83.5" cy="83.5" r="76" fill="#111111" stroke="#383232" stroke-width="15"/>
<mask id="path-2-inside-1_14_151" fill="white">
<path d="M83.5 0C97.8337 1.70927e-07 111.926 3.68981 124.42 10.7142C136.915 17.7387 147.391 27.8612 154.84 40.1074C162.288 52.3536 166.459 66.3111 166.951 80.6363C167.442 94.9615 164.238 109.172 157.646 121.9C151.055 134.628 141.297 145.445 129.314 153.309C117.33 161.174 103.524 165.821 89.224 166.804C74.9241 167.786 60.612 165.071 47.6654 158.92C34.7188 152.768 23.5737 143.388 15.3029 131.681L83.5 83.5L83.5 0Z"/>
</mask>
<path d="M83.5 0C97.8337 1.70927e-07 111.926 3.68981 124.42 10.7142C136.915 17.7387 147.391 27.8612 154.84 40.1074C162.288 52.3536 166.459 66.3111 166.951 80.6363C167.442 94.9615 164.238 109.172 157.646 121.9C151.055 134.628 141.297 145.445 129.314 153.309C117.33 161.174 103.524 165.821 89.224 166.804C74.9241 167.786 60.612 165.071 47.6654 158.92C34.7188 152.768 23.5737 143.388 15.3029 131.681L83.5 83.5L83.5 0Z" fill="#111111" stroke="#FFB300" stroke-width="30" mask="url(#path-2-inside-1_14_151)"/>
<ellipse cx="83.4999" cy="83.5" rx="73.9571" ry="73.2755" fill="#111111"/>
<path d="M49.6968 83.6746C49.6968 78.4474 50.7988 74.5571 53.0029 72.0037C55.2191 69.4503 58.5312 68.1736 62.9395 68.1736C64.445 68.1736 65.6253 68.264 66.4805 68.4446V72.907C65.4085 72.6662 64.3486 72.5457 63.3008 72.5457C61.3857 72.5457 59.82 72.8348 58.6035 73.4129C57.3991 73.991 56.4958 74.8462 55.8936 75.9783C55.2913 77.1105 54.936 78.7184 54.8276 80.8021H55.0625C56.2549 78.7545 58.1639 77.7308 60.7896 77.7308C63.1502 77.7308 64.999 78.4715 66.3359 79.9529C67.6729 81.4344 68.3413 83.4819 68.3413 86.0955C68.3413 88.9139 67.5464 91.1481 65.9565 92.7982C64.3667 94.4362 62.1626 95.2552 59.3442 95.2552C57.3931 95.2552 55.6888 94.8035 54.2314 93.9002C52.7861 92.9969 51.666 91.678 50.8711 89.9437C50.0882 88.2093 49.6968 86.1196 49.6968 83.6746ZM59.2358 90.7928C60.4282 90.7928 61.3436 90.3953 61.9819 89.6004C62.6203 88.7934 62.9395 87.6492 62.9395 86.1678C62.9395 84.879 62.6383 83.8673 62.0361 83.1326C61.446 82.3859 60.5487 82.0125 59.3442 82.0125C58.2121 82.0125 57.2425 82.3799 56.4355 83.1146C55.6406 83.8493 55.2432 84.7044 55.2432 85.68C55.2432 87.1133 55.6165 88.3237 56.3633 89.3113C57.1221 90.299 58.0796 90.7928 59.2358 90.7928ZM80.6265 78.0198C83.1799 78.0198 85.2093 78.7365 86.7148 80.1697C88.2324 81.603 88.9912 83.5662 88.9912 86.0594C88.9912 89.0102 88.0819 91.2806 86.2632 92.8704C84.4445 94.4603 81.8429 95.2552 78.4585 95.2552C75.5197 95.2552 73.147 94.7794 71.3403 93.8279V89.0042C72.2918 89.5101 73.3999 89.9256 74.6646 90.2508C75.9292 90.5639 77.1276 90.7205 78.2598 90.7205C81.6683 90.7205 83.3726 89.3234 83.3726 86.5291C83.3726 83.8673 81.6081 82.5364 78.0791 82.5364C77.4408 82.5364 76.7362 82.6027 75.9653 82.7352C75.1945 82.8556 74.5682 82.9881 74.0864 83.1326L71.8643 81.9402L72.8579 68.4808H87.1846V73.2142H77.7539L77.2661 78.3992L77.8984 78.2728C78.6331 78.1041 79.5425 78.0198 80.6265 78.0198ZM96.3623 76.3939C96.3623 77.9235 96.4948 79.0677 96.7598 79.8265C97.0368 80.5732 97.4764 80.9466 98.0786 80.9466C99.2349 80.9466 99.813 79.429 99.813 76.3939C99.813 73.3828 99.2349 71.8773 98.0786 71.8773C97.4764 71.8773 97.0368 72.2506 96.7598 72.9974C96.4948 73.7321 96.3623 74.8642 96.3623 76.3939ZM104.366 76.3577C104.366 79.1279 103.83 81.2116 102.758 82.6087C101.686 83.9938 100.114 84.6863 98.0425 84.6863C96.0552 84.6863 94.5195 83.9757 93.4355 82.5545C92.3516 81.1212 91.8096 79.0556 91.8096 76.3577C91.8096 70.8535 93.8872 68.1014 98.0425 68.1014C100.078 68.1014 101.638 68.818 102.722 70.2513C103.818 71.6725 104.366 73.708 104.366 76.3577ZM116.795 68.4808L102.144 94.8939H97.8076L112.459 68.4808H116.795ZM114.862 86.9446C114.862 88.4743 114.995 89.6185 115.26 90.3773C115.537 91.124 115.976 91.4974 116.579 91.4974C117.735 91.4974 118.313 89.9798 118.313 86.9446C118.313 83.9336 117.735 82.428 116.579 82.428C115.976 82.428 115.537 82.8014 115.26 83.5482C114.995 84.2829 114.862 85.415 114.862 86.9446ZM122.866 86.9085C122.866 89.6666 122.33 91.7443 121.258 93.1414C120.186 94.5265 118.614 95.2191 116.542 95.2191C114.555 95.2191 113.02 94.5084 111.936 93.0872C110.852 91.654 110.31 89.5944 110.31 86.9085C110.31 81.4043 112.387 78.6522 116.542 78.6522C118.578 78.6522 120.138 79.3688 121.222 80.8021C122.318 82.2233 122.866 84.2588 122.866 86.9085Z" fill="white"/>
</svg>
