<svg width="165" height="165" viewBox="0 0 165 165" fill="none" xmlns="http://www.w3.org/2000/svg">
<circle cx="82.5" cy="82.5" r="75" fill="#111111" stroke="#383232" stroke-width="15"/>
<mask id="path-2-inside-1_14_121" fill="white">
<path d="M82.5 0C98.817 1.94578e-07 114.767 4.83854 128.335 13.9038C141.902 22.969 152.476 35.8537 158.72 50.9286C164.964 66.0035 166.598 82.5915 163.415 98.595C160.232 114.598 152.374 129.298 140.836 140.836C129.298 152.374 114.598 160.232 98.5949 163.415C82.5915 166.598 66.0035 164.964 50.9286 158.72C35.8537 152.476 22.969 141.902 13.9038 128.335C4.83854 114.767 -3.89156e-07 98.817 0 82.5L82.5 82.5L82.5 0Z"/>
</mask>
<path d="M82.5 0C98.817 1.94578e-07 114.767 4.83854 128.335 13.9038C141.902 22.969 152.476 35.8537 158.72 50.9286C164.964 66.0035 166.598 82.5915 163.415 98.595C160.232 114.598 152.374 129.298 140.836 140.836C129.298 152.374 114.598 160.232 98.5949 163.415C82.5915 166.598 66.0035 164.964 50.9286 158.72C35.8537 152.476 22.969 141.902 13.9038 128.335C4.83854 114.767 -3.89156e-07 98.817 0 82.5L82.5 82.5L82.5 0Z" fill="#111111" stroke="#FFB300" stroke-width="30" mask="url(#path-2-inside-1_14_121)"/>
<ellipse cx="82.5001" cy="82.5" rx="73.0714" ry="72.398" fill="#111111"/>
<path d="M55.1924 97.6295L65.1108 75.9498H52.085V71.2525H71.0366V74.7574L61.0459 97.6295H55.1924ZM83.3218 80.7554C85.8752 80.7554 87.9046 81.4721 89.4102 82.9053C90.9277 84.3386 91.6865 86.3018 91.6865 88.795C91.6865 91.7458 90.7772 94.0162 88.9585 95.606C87.1398 97.1959 84.5382 97.9908 81.1538 97.9908C78.215 97.9908 75.8423 97.515 74.0356 96.5635V91.7398C74.9871 92.2457 76.0952 92.6612 77.3599 92.9864C78.6245 93.2995 79.8229 93.4561 80.9551 93.4561C84.3636 93.4561 86.0679 92.059 86.0679 89.2647C86.0679 86.6029 84.3034 85.272 80.7744 85.272C80.1361 85.272 79.4315 85.3383 78.6606 85.4708C77.8898 85.5912 77.2635 85.7237 76.7817 85.8682L74.5596 84.6758L75.5532 71.2164H89.8799V75.9498H80.4492L79.9614 81.1348L80.5938 81.0084C81.3285 80.8397 82.2378 80.7554 83.3218 80.7554ZM99.0576 79.1295C99.0576 80.6591 99.1901 81.8033 99.4551 82.5621C99.7321 83.3088 100.172 83.6822 100.774 83.6822C101.93 83.6822 102.508 82.1646 102.508 79.1295C102.508 76.1184 101.93 74.6129 100.774 74.6129C100.172 74.6129 99.7321 74.9862 99.4551 75.733C99.1901 76.4677 99.0576 77.5998 99.0576 79.1295ZM107.061 79.0933C107.061 81.8635 106.525 83.9472 105.453 85.3443C104.381 86.7294 102.809 87.4219 100.738 87.4219C98.7505 87.4219 97.2148 86.7113 96.1309 85.2901C95.0469 83.8568 94.5049 81.7912 94.5049 79.0933C94.5049 73.5891 96.5825 70.837 100.738 70.837C102.773 70.837 104.333 71.5536 105.417 72.9869C106.513 74.4081 107.061 76.4436 107.061 79.0933ZM119.491 71.2164L104.839 97.6295H100.503L115.155 71.2164H119.491ZM117.558 89.6802C117.558 91.2099 117.69 92.3541 117.955 93.1129C118.232 93.8596 118.672 94.233 119.274 94.233C120.43 94.233 121.008 92.7154 121.008 89.6802C121.008 86.6692 120.43 85.1636 119.274 85.1636C118.672 85.1636 118.232 85.537 117.955 86.2838C117.69 87.0185 117.558 88.1506 117.558 89.6802ZM125.561 89.6441C125.561 92.4022 125.025 94.4799 123.953 95.877C122.881 97.2621 121.309 97.9547 119.238 97.9547C117.25 97.9547 115.715 97.244 114.631 95.8228C113.547 94.3895 113.005 92.33 113.005 89.6441C113.005 84.1399 115.083 81.3878 119.238 81.3878C121.273 81.3878 122.833 82.1044 123.917 83.5377C125.013 84.9589 125.561 86.9944 125.561 89.6441Z" fill="white"/>
</svg>
