<svg width="164" height="164" viewBox="0 0 164 164" fill="none" xmlns="http://www.w3.org/2000/svg">
<circle cx="82" cy="82" r="74.5" fill="#111111" stroke="#383232" stroke-width="15"/>
<mask id="path-2-inside-1_14_169" fill="white">
<path d="M82 0C101.079 2.27515e-07 119.561 6.65288 134.263 18.8129C148.964 30.9729 158.966 47.8788 162.545 66.6192C166.123 85.3596 163.055 104.761 153.869 121.483C144.682 138.205 129.952 151.2 112.216 158.23C94.4791 165.26 74.8462 165.886 56.6982 159.999C38.5501 154.112 23.0229 142.081 12.7905 125.978C2.55815 109.875 -1.73879 90.7077 0.639687 71.7775C3.01816 52.8473 11.9232 35.339 25.8211 22.2678L82 82L82 0Z"/>
</mask>
<path d="M82 0C101.079 2.27515e-07 119.561 6.65288 134.263 18.8129C148.964 30.9729 158.966 47.8788 162.545 66.6192C166.123 85.3596 163.055 104.761 153.869 121.483C144.682 138.205 129.952 151.2 112.216 158.23C94.4791 165.26 74.8462 165.886 56.6982 159.999C38.5501 154.112 23.0229 142.081 12.7905 125.978C2.55815 109.875 -1.73879 90.7077 0.639687 71.7775C3.01816 52.8473 11.9232 35.339 25.8211 22.2678L82 82L82 0Z" fill="#111111" stroke="#FFB300" stroke-width="30" mask="url(#path-2-inside-1_14_169)"/>
<ellipse cx="82" cy="82" rx="72.6286" ry="71.9592" fill="#111111"/>
<path d="M62.7991 67.1335C65.3284 67.1335 67.3639 67.7116 68.9055 68.8679C70.4592 70.0121 71.2361 71.5598 71.2361 73.5109C71.2361 74.8599 70.8627 76.0643 70.116 77.1242C69.3692 78.1721 68.1648 79.1115 66.5027 79.9426C68.4779 81.0025 69.8931 82.1105 70.7483 83.2668C71.6155 84.411 72.0491 85.6696 72.0491 87.0427C72.0491 89.2106 71.2 90.9571 69.5017 92.2819C67.8035 93.5947 65.5693 94.2512 62.7991 94.2512C59.9084 94.2512 57.6381 93.6369 55.988 92.4084C54.338 91.1799 53.5129 89.4395 53.5129 87.1872C53.5129 85.6817 53.9104 84.3447 54.7053 83.1765C55.5123 82.0082 56.801 80.9784 58.5715 80.0871C57.066 79.1356 55.982 78.1179 55.3196 77.0339C54.6571 75.9499 54.3259 74.7635 54.3259 73.4748C54.3259 71.5838 55.1088 70.0542 56.6746 68.8859C58.2403 67.7176 60.2818 67.1335 62.7991 67.1335ZM58.6799 86.862C58.6799 87.8978 59.0413 88.7048 59.7639 89.2829C60.4866 89.861 61.4742 90.1501 62.7268 90.1501C64.1119 90.1501 65.1477 89.855 65.8342 89.2648C66.5208 88.6626 66.864 87.8737 66.864 86.8981C66.864 86.0912 66.5208 85.3384 65.8342 84.6398C65.1597 83.9292 64.0577 83.1765 62.5281 82.3815C59.9626 83.5619 58.6799 85.0554 58.6799 86.862ZM62.7629 71.2165C61.8114 71.2165 61.0406 71.4634 60.4504 71.9572C59.8723 72.439 59.5833 73.0894 59.5833 73.9084C59.5833 74.631 59.8121 75.2814 60.2698 75.8596C60.7395 76.4256 61.5826 77.0098 62.7991 77.612C63.9794 77.058 64.8044 76.4919 65.2742 75.9138C65.7439 75.3356 65.9788 74.6672 65.9788 73.9084C65.9788 73.0773 65.6777 72.4209 65.0754 71.9391C64.4732 71.4574 63.7024 71.2165 62.7629 71.2165ZM84.4426 77.0158C86.996 77.0158 89.0255 77.7324 90.531 79.1657C92.0486 80.599 92.8074 82.5622 92.8074 85.0554C92.8074 88.0062 91.898 90.2766 90.0793 91.8664C88.2607 93.4562 85.6591 94.2512 82.2747 94.2512C79.3359 94.2512 76.9631 93.7754 75.1565 92.8239V88.0002C76.108 88.506 77.2161 88.9216 78.4807 89.2468C79.7454 89.5599 80.9438 89.7165 82.0759 89.7165C85.4845 89.7165 87.1887 88.3194 87.1887 85.5251C87.1887 82.8633 85.4242 81.5324 81.8953 81.5324C81.2569 81.5324 80.5523 81.5987 79.7815 81.7311C79.0107 81.8516 78.3844 81.9841 77.9026 82.1286L75.6804 80.9362L76.6741 67.4767H91.0007V72.2101H81.5701L81.0823 77.3952L81.7146 77.2687C82.4493 77.1001 83.3586 77.0158 84.4426 77.0158ZM100.178 75.3898C100.178 76.9195 100.311 78.0637 100.576 78.8224C100.853 79.5692 101.293 79.9426 101.895 79.9426C103.051 79.9426 103.629 78.425 103.629 75.3898C103.629 72.3788 103.051 70.8732 101.895 70.8732C101.293 70.8732 100.853 71.2466 100.576 71.9933C100.311 72.728 100.178 73.8602 100.178 75.3898ZM108.182 75.3537C108.182 78.1239 107.646 80.2075 106.574 81.6047C105.502 82.9898 103.93 83.6823 101.859 83.6823C99.8713 83.6823 98.3357 82.9717 97.2517 81.5505C96.1677 80.1172 95.6257 78.0516 95.6257 75.3537C95.6257 69.8495 97.7034 67.0974 101.859 67.0974C103.894 67.0974 105.454 67.814 106.538 69.2473C107.634 70.6685 108.182 72.704 108.182 75.3537ZM120.612 67.4767L105.96 93.8898H101.624L116.276 67.4767H120.612ZM118.678 85.9406C118.678 87.4702 118.811 88.6144 119.076 89.3732C119.353 90.12 119.793 90.4933 120.395 90.4933C121.551 90.4933 122.129 88.9758 122.129 85.9406C122.129 82.9295 121.551 81.424 120.395 81.424C119.793 81.424 119.353 81.7974 119.076 82.5441C118.811 83.2788 118.678 84.411 118.678 85.9406ZM126.682 85.9045C126.682 88.6626 126.146 90.7403 125.074 92.1374C124.002 93.5225 122.43 94.215 120.359 94.215C118.371 94.215 116.836 93.5044 115.752 92.0832C114.668 90.6499 114.126 88.5904 114.126 85.9045C114.126 80.4002 116.203 77.6481 120.359 77.6481C122.394 77.6481 123.954 78.3648 125.038 79.798C126.134 81.2193 126.682 83.2547 126.682 85.9045Z" fill="white"/>
</svg>
