<svg width="32" height="33" viewBox="0 0 32 33" fill="none" xmlns="http://www.w3.org/2000/svg">
<path fill-rule="evenodd" clip-rule="evenodd" d="M3.77062 1.05572C4.12054 0.695396 4.54072 0.415882 5.00331 0.235696C5.4659 0.0555097 5.96034 -0.0212332 6.45387 0.0105525C6.9474 0.0423382 7.42874 0.181927 7.866 0.420068C8.30325 0.658209 8.68645 0.989464 8.99017 1.39188L12.5799 6.14771C13.2378 7.0201 13.4698 8.15646 13.2098 9.2289L12.1159 13.7455C12.0594 13.9794 12.0624 14.2245 12.1248 14.4568C12.1871 14.6892 12.3067 14.901 12.4719 15.0716L17.3855 20.1388C17.5511 20.3095 17.7568 20.433 17.9825 20.4974C18.2082 20.5617 18.4462 20.5647 18.6733 20.506L23.051 19.3778C23.5642 19.2455 24.0998 19.2352 24.6174 19.3478C25.135 19.4603 25.621 19.6927 26.0387 20.0275L30.6503 23.7274C32.3082 25.0576 32.4602 27.584 30.9763 29.1122L28.9085 31.2447C27.4286 32.7709 25.2168 33.4411 23.155 32.6925C17.8778 30.7776 13.0864 27.662 9.13616 23.5768C5.17508 19.5037 2.15397 14.5631 0.296917 9.12165C-0.427022 6.99741 0.222923 4.71436 1.7028 3.18821L3.77062 1.05572ZM31.7062 0.30295C31.7994 0.398738 31.8732 0.512531 31.9236 0.63781C31.9741 0.763089 32 0.897393 32 1.03303C32 1.16867 31.9741 1.30297 31.9236 1.42825C31.8732 1.55353 31.7994 1.66732 31.7062 1.76311L23.4129 10.3137H28.9985C29.2637 10.3137 29.518 10.4223 29.7055 10.6157C29.893 10.8091 29.9984 11.0714 29.9984 11.3449C29.9984 11.6184 29.893 11.8807 29.7055 12.074C29.518 12.2674 29.2637 12.3761 28.9985 12.3761H20.9991C20.734 12.3761 20.4796 12.2674 20.2921 12.074C20.1046 11.8807 19.9992 11.6184 19.9992 11.3449V3.0954C19.9992 2.82191 20.1046 2.55963 20.2921 2.36624C20.4796 2.17286 20.734 2.06422 20.9991 2.06422C21.2643 2.06422 21.5187 2.17286 21.7062 2.36624C21.8937 2.55963 21.9991 2.82191 21.9991 3.0954V8.85561L30.2904 0.30295C30.3832 0.206919 30.4936 0.130729 30.6151 0.078744C30.7365 0.0267589 30.8668 0 30.9983 0C31.1298 0 31.2601 0.0267589 31.3815 0.078744C31.503 0.130729 31.6134 0.206919 31.7062 0.30295V0.30295Z" fill="#FFB300"/>
</svg>
