<svg width="61" height="61" viewBox="0 0 61 61" fill="none" xmlns="http://www.w3.org/2000/svg">
<circle cx="30.5" cy="30.5" r="30" fill="#383232" stroke="#FFB300"/>
<path d="M18.125 46C17.8266 46 17.5405 45.8834 17.3295 45.6757C17.1185 45.4681 17 45.1865 17 44.8929C17 44.5992 17.1185 44.3176 17.3295 44.11C17.5405 43.9024 17.8266 43.7857 18.125 43.7857H20.375V41.5714C20.3745 39.6914 20.9145 37.8497 21.9326 36.2589C22.9506 34.6681 24.4052 33.3932 26.1282 32.5814C26.7807 32.2736 27.125 31.7466 27.125 31.275V29.725C27.125 29.2534 26.7785 28.7264 26.1282 28.4186C24.4052 27.6068 22.9506 26.3319 21.9326 24.7411C20.9145 23.1503 20.3745 21.3086 20.375 19.4286V17.2143H18.125C17.8266 17.2143 17.5405 17.0976 17.3295 16.89C17.1185 16.6824 17 16.4008 17 16.1071C17 15.8135 17.1185 15.5319 17.3295 15.3243C17.5405 15.1166 17.8266 15 18.125 15H42.875C43.1734 15 43.4595 15.1166 43.6705 15.3243C43.8815 15.5319 44 15.8135 44 16.1071C44 16.4008 43.8815 16.6824 43.6705 16.89C43.4595 17.0976 43.1734 17.2143 42.875 17.2143H40.625V19.4286C40.6255 21.3086 40.0855 23.1503 39.0674 24.7411C38.0494 26.3319 36.5948 27.6068 34.8717 28.4186C34.2192 28.7264 33.875 29.2534 33.875 29.725V31.275C33.875 31.7466 34.2215 32.2736 34.8717 32.5814C36.5948 33.3932 38.0494 34.6681 39.0674 36.2589C40.0855 37.8497 40.6255 39.6914 40.625 41.5714V43.7857H42.875C43.1734 43.7857 43.4595 43.9024 43.6705 44.11C43.8815 44.3176 44 44.5992 44 44.8929C44 45.1865 43.8815 45.4681 43.6705 45.6757C43.4595 45.8834 43.1734 46 42.875 46H18.125ZM22.625 17.2143V19.4286C22.625 20.6176 22.895 21.7425 23.3832 22.75H37.6168C38.1028 21.7425 38.375 20.6176 38.375 19.4286V17.2143H22.625ZM29.375 31.275C29.375 32.8272 28.2995 34.0119 27.1002 34.5787C25.7599 35.21 24.6284 36.2017 23.8365 37.4391C23.0446 38.6764 22.6246 40.1091 22.625 41.5714C22.625 41.5714 24.5735 38.6951 29.375 38.2943V31.275ZM31.625 31.275V38.2943C36.4265 38.6951 38.375 41.5714 38.375 41.5714C38.3754 40.1091 37.9554 38.6764 37.1635 37.4391C36.3716 36.2017 35.2401 35.21 33.8997 34.5787C32.7005 34.0119 31.625 32.8294 31.625 31.2772V31.275Z" fill="#FFB300"/>
</svg>
