<svg width="30" height="27" viewBox="0 0 30 27" fill="none" xmlns="http://www.w3.org/2000/svg">
<path d="M16.7572 1.21677C16.2163 0.965445 15.6129 0.833984 14.9999 0.833984C14.387 0.833984 13.7835 0.965445 13.2427 1.21677L2.03815 6.42471C1.44072 6.70233 0.941126 7.11626 0.592789 7.62222C0.244452 8.12819 0.0604792 8.70716 0.0605469 9.29722V9.80824L12.5891 16.2075L14.9999 15.039L17.4108 16.2075L29.9393 9.80824V9.29722C29.9394 8.70716 29.7554 8.12819 29.4071 7.62222C29.0588 7.11626 28.5592 6.70233 27.9617 6.42471L16.7572 1.21677ZM29.9393 11.6945L19.3081 17.1254L29.9393 22.2715V11.6929V11.6945ZM29.8292 24.0813L14.9999 16.9008L0.170725 24.0813C0.372413 24.786 0.83878 25.4117 1.4956 25.8588C2.15243 26.3059 2.96197 26.5487 3.79539 26.5485H26.2045C27.0379 26.5487 27.8474 26.3059 28.5043 25.8588C29.1611 25.4117 29.6275 24.786 29.8292 24.0813ZM0.0605469 22.2731L10.6918 17.1254L0.0605469 11.6945V22.2731Z" fill="white"/>
</svg>
