<svg width="61" height="70" viewBox="0 0 61 70" fill="none" xmlns="http://www.w3.org/2000/svg">
<circle cx="30.5" cy="34.5" r="30" fill="#383232" stroke="#FFB300"/>
<path d="M39.866 12.1882C40.133 12.3442 40.3395 12.5869 40.4519 12.8766C40.5644 13.1663 40.5761 13.4859 40.4851 13.7831L35.5735 29.8752H44.6359C44.9022 29.8751 45.1627 29.9536 45.3853 30.1011C45.6078 30.2486 45.7827 30.4585 45.8883 30.7051C45.9939 30.9516 46.0255 31.2239 45.9794 31.4884C45.9332 31.7529 45.8113 31.9979 45.6286 32.1933L23.8112 55.567C23.6001 55.7933 23.3192 55.9409 23.0142 55.9857C22.7093 56.0304 22.3983 55.9697 22.132 55.8134C21.8656 55.6571 21.6596 55.4145 21.5476 55.1251C21.4355 54.8356 21.424 54.5165 21.5149 54.2196L26.4265 38.1247H17.3641C17.0978 38.1248 16.8373 38.0463 16.6147 37.8988C16.3922 37.7513 16.2173 37.5414 16.1117 37.2948C16.0061 37.0483 15.9745 36.776 16.0206 36.5115C16.0668 36.2471 16.1887 36.002 16.3714 35.8066L38.1888 12.4329C38.3997 12.2069 38.6802 12.0594 38.9847 12.0145C39.2892 11.9696 39.5998 12.0298 39.866 12.1855V12.1882ZM20.5195 35.3749H28.2728C28.4862 35.3748 28.6966 35.4253 28.8872 35.5222C29.0777 35.6191 29.243 35.7597 29.3698 35.9328C29.4966 36.1059 29.5814 36.3065 29.6173 36.5186C29.6531 36.7307 29.6392 36.9484 29.5764 37.154L25.8456 49.3716L41.4778 32.625H33.7272C33.5138 32.6251 33.3033 32.5746 33.1128 32.4777C32.9223 32.3808 32.757 32.2402 32.6302 32.0671C32.5034 31.8941 32.4186 31.6934 32.3827 31.4813C32.3469 31.2692 32.3608 31.0516 32.4236 30.8459L36.1544 18.6283L20.5195 35.3749Z" fill="#FFB300"/>
</svg>
