<svg width="61" height="61" viewBox="0 0 61 61" fill="none" xmlns="http://www.w3.org/2000/svg">
<circle cx="30.5" cy="30.5" r="30" fill="#383232" stroke="#FFB300"/>
<path d="M32.5088 13.3437C29.8015 13.1747 27.1368 14.1068 25.1009 15.9349C23.065 17.7629 21.8247 20.3372 21.6528 23.0915L20.638 39.3541C20.5551 40.6804 20.9326 41.9932 21.7047 43.0635C22.4767 44.1337 23.5943 44.8934 24.8623 45.21C26.1303 45.5266 27.4684 45.38 28.6429 44.7958C29.8174 44.2116 30.7539 43.2269 31.2889 42.0135L32.6467 38.9405C33.1685 37.7566 33.8635 36.6596 34.7079 35.6867L39.6346 30.0147C40.8582 28.6053 41.669 26.8756 41.9748 25.0226C42.2806 23.1696 42.0692 21.2676 41.3645 19.5329C40.6599 17.7983 39.4903 16.3007 37.9889 15.2105C36.4875 14.1204 34.7146 13.4814 32.8717 13.3663L32.5088 13.3437ZM19.3844 22.9499C19.5945 19.5836 21.1104 16.4372 23.5987 14.2029C26.087 11.9686 29.3439 10.8294 32.6528 11.0359L33.0157 11.0586C35.2832 11.2003 37.4646 11.9866 39.3119 13.328C41.1592 14.6695 42.5981 16.5122 43.465 18.6465C44.3319 20.7809 44.592 23.1212 44.2156 25.4012C43.8392 27.6811 42.8415 29.8092 41.336 31.5434L36.4093 37.2154C35.7163 38.0129 35.1457 38.9122 34.7171 39.8829L33.3639 42.9562C32.6113 44.6652 31.2931 46.0524 29.6394 46.8754C27.9857 47.6985 26.1015 47.9052 24.3159 47.4594C22.5303 47.0136 20.9567 45.9436 19.8698 44.4363C18.783 42.929 18.252 41.0802 18.3695 39.2126L19.3844 22.9499ZM32.0767 20.2669C31.1743 20.2106 30.2861 20.5213 29.6074 21.1306C28.9288 21.74 28.5154 22.5981 28.4581 23.5161L28.07 29.7355C28.3327 29.6129 28.5935 29.4832 28.8507 29.3394C29.6225 28.9057 30.223 28.4057 30.5887 27.7636C30.7405 27.4981 30.9897 27.3047 31.2814 27.2258C31.5731 27.1469 31.8834 27.189 32.1441 27.3429C32.4048 27.4968 32.5944 27.7499 32.6714 28.0464C32.7483 28.343 32.7062 28.6587 32.5544 28.9242C31.8998 30.0718 30.9032 30.8251 29.945 31.363C29.2849 31.7201 28.605 32.0381 27.909 32.3156L27.594 37.3626C27.5749 37.6686 27.4371 37.9547 27.2109 38.1578C26.9847 38.3609 26.6886 38.4645 26.3878 38.4457C26.087 38.4269 25.8061 38.2873 25.6069 38.0577C25.4077 37.828 25.3065 37.5271 25.3256 37.221L26.1897 23.3746C26.2852 21.8445 26.9742 20.4143 28.1053 19.3987C29.2363 18.3831 30.7167 17.8653 32.2207 17.9591C33.7248 18.053 35.1293 18.7509 36.1253 19.8992C37.1213 21.0475 37.6272 22.5523 37.5317 24.0824L37.4597 25.2363C37.4406 25.5423 37.3028 25.8283 37.0766 26.0314C36.8504 26.2346 36.5543 26.3381 36.2535 26.3194C35.9527 26.3006 35.6718 26.161 35.4726 25.9313C35.2734 25.7017 35.1722 25.4007 35.1913 25.0947L35.2633 23.9408C35.3206 23.0228 35.0171 22.1199 34.4195 21.4309C33.8219 20.7419 32.9792 20.3232 32.0767 20.2669Z" fill="#FFB300"/>
</svg>
