<svg width="64" height="63" viewBox="0 0 64 63" fill="none" xmlns="http://www.w3.org/2000/svg">
<path d="M35.764 0.937811C34.6055 0.322075 33.3129 0 32 0C30.6871 0 29.3945 0.322075 28.236 0.937811L4.236 13.6971C2.95632 14.3773 1.88619 15.3914 1.14006 16.631C0.393923 17.8706 -0.000144987 19.2891 4.00156e-08 20.7347V21.9867L26.836 37.6647L32 34.8019L37.164 37.6647L64 21.9867V20.7347C64.0001 19.2891 63.6061 17.8706 62.8599 16.631C62.1138 15.3914 61.0437 14.3773 59.764 13.6971L35.764 0.937811ZM64 26.608L41.228 39.9136L64 52.5214V26.604V26.608ZM63.764 56.9553L32 39.3633L0.236 56.9553C0.668015 58.6819 1.66697 60.2149 3.07388 61.3102C4.48079 62.4056 6.21482 63.0004 8 63H56C57.7852 63.0004 59.5192 62.4056 60.9261 61.3102C62.333 60.2149 63.332 58.6819 63.764 56.9553ZM4.00156e-08 52.5254L22.772 39.9136L4.00156e-08 26.608V52.5254Z" fill="#FFB300"/>
</svg>
