<svg width="66" height="66" viewBox="0 0 66 66" fill="none" xmlns="http://www.w3.org/2000/svg">
<circle cx="33" cy="33" r="32.5" fill="#383232" stroke="#FFB300"/>
<path d="M25.2008 44C25.2008 44 23.1721 44 23.1721 41.75C23.1721 39.5 25.2008 32.75 33.3156 32.75C41.4303 32.75 43.459 39.5 43.459 41.75C43.459 44 41.4303 44 41.4303 44H25.2008ZM33.3156 30.5C34.9297 30.5 36.4777 29.7888 37.6191 28.523C38.7604 27.2571 39.4016 25.5402 39.4016 23.75C39.4016 21.9598 38.7604 20.2429 37.6191 18.977C36.4777 17.7112 34.9297 17 33.3156 17C31.7014 17 30.1534 17.7112 29.0121 18.977C27.8707 20.2429 27.2295 21.9598 27.2295 23.75C27.2295 25.5402 27.8707 27.2571 29.0121 28.523C30.1534 29.7888 31.7014 30.5 33.3156 30.5V30.5Z" fill="#FFB300"/>
<path fill-rule="evenodd" clip-rule="evenodd" d="M21.5816 44C21.2809 43.2976 21.1309 42.5274 21.1434 41.75C21.1434 38.7012 22.5229 35.5625 25.071 33.38C23.7992 32.9454 22.4742 32.7328 21.1434 32.75C13.0287 32.75 11 39.5 11 41.75C11 44 13.0287 44 13.0287 44H21.5816Z" fill="#FFB300"/>
<path d="M20.1291 30.5C21.4742 30.5 22.7642 29.9074 23.7153 28.8525C24.6665 27.7976 25.2008 26.3668 25.2008 24.875C25.2008 23.3832 24.6665 21.9524 23.7153 20.8975C22.7642 19.8426 21.4742 19.25 20.1291 19.25C18.784 19.25 17.494 19.8426 16.5428 20.8975C15.5917 21.9524 15.0574 23.3832 15.0574 24.875C15.0574 26.3668 15.5917 27.7976 16.5428 28.8525C17.494 29.9074 18.784 30.5 20.1291 30.5V30.5Z" fill="#FFB300"/>
<path fill-rule="evenodd" clip-rule="evenodd" d="M44.6936 43.7C44.9866 43.0008 45.1326 42.2341 45.1204 41.4602C45.1204 38.4253 43.7768 35.3007 41.2951 33.1281C42.5338 32.6955 43.8243 32.4839 45.1204 32.501C53.0241 32.501 55 39.2204 55 41.4602C55 43.7 53.0241 43.7 53.0241 43.7H44.6936Z" fill="#FFB300"/>
<path d="M46.8176 30.95C48.1627 30.95 49.4527 30.3573 50.4039 29.3024C51.355 28.2475 51.8894 26.8168 51.8894 25.325C51.8894 23.8331 51.355 22.4024 50.4039 21.3475C49.4527 20.2926 48.1627 19.7 46.8176 19.7C45.4725 19.7 44.1825 20.2926 43.2314 21.3475C42.2803 22.4024 41.7459 23.8331 41.7459 25.325C41.7459 26.8168 42.2803 28.2475 43.2314 29.3024C44.1825 30.3573 45.4725 30.95 46.8176 30.95V30.95Z" fill="#FFB300"/>
</svg>
