<svg width="48" height="49" viewBox="0 0 48 49" fill="none" xmlns="http://www.w3.org/2000/svg">
<ellipse cx="24" cy="24.2293" rx="24" ry="23.8003" fill="#FFB300"/>
<g clip-path="url(#clip0_27_272)">
<path d="M22.6281 14.1074C22.0313 14.1074 21.459 14.3425 21.0371 14.7609C20.6151 15.1794 20.3781 15.7469 20.3781 16.3387V17.0825H15.1281C14.5313 17.0825 13.959 17.3175 13.5371 17.736C13.1151 18.1544 12.8781 18.722 12.8781 19.3137V21.3725L24.2991 24.3921C24.6784 24.4923 25.0777 24.4923 25.4571 24.3921L36.8781 21.3725V19.3137C36.8781 18.722 36.641 18.1544 36.219 17.736C35.7971 17.3175 35.2248 17.0825 34.6281 17.0825H29.3781V16.3387C29.3781 15.7469 29.141 15.1794 28.719 14.7609C28.2971 14.3425 27.7248 14.1074 27.1281 14.1074H22.6281ZM22.6281 15.5949H27.1281C27.327 15.5949 27.5177 15.6733 27.6584 15.8128C27.799 15.9523 27.8781 16.1414 27.8781 16.3387V17.0825H21.8781V16.3387C21.8781 16.1414 21.9571 15.9523 22.0977 15.8128C22.2384 15.6733 22.4291 15.5949 22.6281 15.5949V15.5949Z" fill="white"/>
<path d="M12.8781 31.2133C12.8781 31.8051 13.1151 32.3726 13.5371 32.7911C13.959 33.2095 14.5313 33.4446 15.1281 33.4446H34.6281C35.2248 33.4446 35.7971 33.2095 36.219 32.7911C36.641 32.3726 36.8781 31.8051 36.8781 31.2133V22.8088L25.0716 25.9282C24.9448 25.9617 24.8113 25.9617 24.6846 25.9282L12.8781 22.8088V31.2133Z" fill="white"/>
</g>
<ellipse cx="24" cy="24.2293" rx="24" ry="23.8003" fill="#FFB300"/>
<path d="M24.1164 11.331C23.9883 11.2719 23.8487 11.2412 23.7073 11.2412C23.566 11.2412 23.4263 11.2719 23.2982 11.331L8.7555 18.0611C8.58425 18.1404 8.44009 18.2676 8.34076 18.427C8.24143 18.5864 8.19125 18.7712 8.19641 18.9585C8.20156 19.1459 8.26181 19.3277 8.36975 19.4815C8.47769 19.6353 8.62862 19.7545 8.80397 19.8244L23.3467 25.5931C23.5781 25.6851 23.8365 25.6851 24.068 25.5931L35.3415 21.1243V32.3924C34.8272 32.3924 34.334 32.595 33.9704 32.9556C33.6067 33.3162 33.4024 33.8053 33.4024 34.3153V38.1611H39.2195V34.3153C39.2195 33.8053 39.0152 33.3162 38.6516 32.9556C38.2879 32.595 37.7947 32.3924 37.2805 32.3924V20.3532L38.6107 19.8244C38.786 19.7545 38.9369 19.6353 39.0449 19.4815C39.1528 19.3277 39.2131 19.1459 39.2182 18.9585C39.2234 18.7712 39.1732 18.5864 39.0739 18.427C38.9745 18.2676 38.8304 18.1404 38.6591 18.0611L24.1164 11.331V11.331Z" fill="white"/>
<path d="M16.2924 24.7624C16.1676 24.7158 16.0344 24.6952 15.9012 24.7019C15.7679 24.7087 15.6375 24.7426 15.5181 24.8017C15.3987 24.8607 15.2929 24.9435 15.2073 25.0449C15.1216 25.1464 15.058 25.2643 15.0204 25.3912L14.0509 28.6601C13.983 28.8896 14.0038 29.1359 14.1092 29.3511C14.2146 29.5662 14.3971 29.7346 14.621 29.8235L23.3466 33.2847C23.5781 33.3767 23.8364 33.3767 24.0679 33.2847L32.7935 29.8235C33.0174 29.7346 33.1999 29.5662 33.3053 29.3511C33.4107 29.1359 33.4315 28.8896 33.3636 28.6601L32.3941 25.3912C32.3565 25.2643 32.2929 25.1464 32.2072 25.0449C32.1216 24.9435 32.0158 24.8607 31.8964 24.8017C31.777 24.7426 31.6466 24.7087 31.5134 24.7019C31.3801 24.6952 31.2469 24.7158 31.1221 24.7624L23.7073 27.5198L16.2924 24.7624Z" fill="white"/>
<defs>
<clipPath id="clip0_27_272">
<rect width="24" height="23.8003" fill="white" transform="translate(12.8781 12.6194)"/>
</clipPath>
</defs>
</svg>
