<svg width="102" height="99" viewBox="0 0 102 99" fill="none" xmlns="http://www.w3.org/2000/svg">
<path d="M51 0C22.8225 0 0 22.1512 0 49.5C0 71.4037 14.5987 89.9044 34.8712 96.4631C37.4212 96.8963 38.3775 95.4113 38.3775 94.1119C38.3775 92.9363 38.3138 89.0381 38.3138 84.8925C25.5 87.1819 22.185 81.8606 21.165 79.0762C20.5912 77.6531 18.105 73.26 15.9375 72.0844C14.1525 71.1562 11.6025 68.8669 15.8738 68.805C19.89 68.7431 22.7588 72.3937 23.715 73.8787C28.305 81.3656 35.6363 79.2619 38.5688 77.9625C39.015 74.745 40.3537 72.5794 41.82 71.3419C30.4725 70.1044 18.615 65.835 18.615 46.9012C18.615 41.5181 20.5913 37.0631 23.8425 33.5981C23.3325 32.3606 21.5475 27.2869 24.3525 20.4806C24.3525 20.4806 28.6238 19.1813 38.3775 25.5544C42.4575 24.4406 46.7925 23.8837 51.1275 23.8837C55.4625 23.8837 59.7975 24.4406 63.8775 25.5544C73.6313 19.1194 77.9025 20.4806 77.9025 20.4806C80.7075 27.2869 78.9225 32.3606 78.4125 33.5981C81.6638 37.0631 83.64 41.4562 83.64 46.9012C83.64 65.8969 71.7188 70.1044 60.3713 71.3419C62.22 72.8887 63.8138 75.8588 63.8138 80.4994C63.8138 87.12 63.75 92.4413 63.75 94.1119C63.75 95.4113 64.7063 96.9581 67.2563 96.4631C77.3812 93.1466 86.1794 86.8313 92.4122 78.4065C98.6449 69.9817 101.998 59.8717 102 49.5C102 22.1512 79.1775 0 51 0Z" fill="#FFB300"/>
</svg>
