<svg width="26" height="26" viewBox="0 0 26 26" fill="none" xmlns="http://www.w3.org/2000/svg">
<path d="M9.95105 24.5152V18.4018C9.95105 17.9745 10.4441 17.5385 10.9371 17.5385H14.8811C15.3741 17.5385 15.8671 17.9745 15.8671 18.4106V24.5152C15.8671 24.7464 15.971 24.9683 16.1559 25.1318C16.3408 25.2954 16.5916 25.3872 16.8531 25.3872H24.7413C25.0028 25.3872 25.2536 25.2954 25.4385 25.1318C25.6234 24.9683 25.7273 24.7464 25.7273 24.5152V12.306C25.7275 12.1914 25.7022 12.0778 25.6528 11.9719C25.6034 11.8659 25.5309 11.7697 25.4394 11.6885L22.7692 9.32866V3.5851C22.7692 3.35381 22.6653 3.13199 22.4804 2.96844C22.2955 2.8049 22.0447 2.71302 21.7832 2.71302H19.8112C19.5497 2.71302 19.2989 2.8049 19.114 2.96844C18.9291 3.13199 18.8252 3.35381 18.8252 3.5851V5.84031L13.6072 1.22349C13.5156 1.14228 13.4068 1.07784 13.287 1.03388C13.1672 0.989915 13.0388 0.967285 12.9091 0.967285C12.7794 0.967285 12.651 0.989915 12.5312 1.03388C12.4114 1.07784 12.3026 1.14228 12.211 1.22349L0.37883 11.6885C0.287324 11.7697 0.214796 11.8659 0.165394 11.9719C0.115991 12.0778 0.090682 12.1914 0.0909134 12.306V24.5152C0.0909134 24.7464 0.194797 24.9683 0.37971 25.1318C0.564624 25.2954 0.81542 25.3872 1.07693 25.3872H8.96504C9.22654 25.3872 9.47734 25.2954 9.66225 25.1318C9.84717 24.9683 9.95105 24.7464 9.95105 24.5152Z" fill="white"/>
</svg>
