<svg width="102" height="102" viewBox="0 0 102 102" fill="none" xmlns="http://www.w3.org/2000/svg">
<path d="M0 7.30575C0 3.27038 3.35325 0 7.49062 0H94.5094C98.6467 0 102 3.27038 102 7.30575V94.6943C102 98.7296 98.6467 102 94.5094 102H7.49062C3.35325 102 0 98.7296 0 94.6943V7.30575ZM31.5116 85.3868V39.3274H16.2053V85.3868H31.5116ZM23.8616 33.0353C29.1975 33.0353 32.5189 29.5035 32.5189 25.0793C32.4232 20.5594 29.2039 17.1233 23.9636 17.1233C18.7234 17.1233 15.3 20.5658 15.3 25.0793C15.3 29.5035 18.6214 33.0353 23.7596 33.0353H23.8616ZM55.1501 85.3868V59.6636C55.1501 58.2866 55.2521 56.9096 55.6601 55.9279C56.763 53.1802 59.2811 50.3306 63.5141 50.3306C69.054 50.3306 71.2661 54.5509 71.2661 60.7474V85.3868H86.5725V58.9688C86.5725 44.8162 79.0245 38.2373 68.952 38.2373C60.8302 38.2373 57.1901 42.6997 55.1501 45.8426V46.002H55.0481C55.082 45.9488 55.116 45.8957 55.1501 45.8426V39.3274H39.8501C40.0414 43.6496 39.8501 85.3868 39.8501 85.3868H55.1501Z" fill="#FFB300"/>
</svg>
