<svg width="62" height="62" viewBox="0 0 62 62" fill="none" xmlns="http://www.w3.org/2000/svg">
<path fill-rule="evenodd" clip-rule="evenodd" d="M62 1.9364C61.9998 1.64985 61.9361 1.36691 61.8134 1.10795C61.6907 0.849 61.5121 0.620484 61.2905 0.438868C61.0689 0.257252 60.8097 0.127059 60.5317 0.0576687C60.2537 -0.0117219 59.9637 -0.0185824 59.6828 0.0375815L40.6875 3.83522L21.6923 0.0375815C21.4416 -0.012527 21.1834 -0.012527 20.9327 0.0375815L1.55775 3.91273C1.11869 4.00049 0.723581 4.23761 0.439593 4.58378C0.155605 4.92995 0.000270405 5.36379 0 5.81155L0 60.0636C0.000173029 60.3501 0.0638994 60.6331 0.186588 60.892C0.309277 61.151 0.487873 61.3795 0.70951 61.5611C0.931147 61.7427 1.19031 61.8729 1.46832 61.9423C1.74633 62.0117 2.03627 62.0186 2.31725 61.9624L21.3125 58.1648L40.3078 61.9624C40.5585 62.0123 40.8165 62.0123 41.0672 61.9624L60.4422 58.0873C60.8813 57.9995 61.2764 57.7624 61.5604 57.4162C61.8444 57.0701 61.9997 56.6362 62 56.1884V1.9364ZM19.375 54.5996V4.30024L21.3125 3.91273L23.25 4.30024V54.5996L21.6923 54.2896C21.4416 54.2393 21.1834 54.2393 20.9327 54.2896L19.375 54.5996ZM38.75 57.6998V7.40036L40.3078 7.71037C40.5584 7.76048 40.8166 7.76048 41.0672 7.71037L42.625 7.40036V57.6998L40.6875 58.0873L38.75 57.6998Z" fill="#FFB300"/>
</svg>
