<svg width="28" height="26" viewBox="0 0 28 26" fill="none" xmlns="http://www.w3.org/2000/svg">
<path d="M2.33333 25.7811C2.33333 25.7811 0 25.7811 0 23.6597C0 21.5382 2.33333 15.1739 14 15.1739C25.6667 15.1739 28 21.5382 28 23.6597C28 25.7811 25.6667 25.7811 25.6667 25.7811H2.33333ZM14 13.0524C15.8565 13.0524 17.637 12.3819 18.9497 11.1884C20.2625 9.99481 21 8.37601 21 6.68808C21 5.00015 20.2625 3.38135 18.9497 2.18781C17.637 0.994258 15.8565 0.32373 14 0.32373C12.1435 0.32373 10.363 0.994258 9.05025 2.18781C7.7375 3.38135 7 5.00015 7 6.68808C7 8.37601 7.7375 9.99481 9.05025 11.1884C10.363 12.3819 12.1435 13.0524 14 13.0524Z" fill="white"/>
</svg>
