<svg width="61" height="61" viewBox="0 0 61 61" fill="none" xmlns="http://www.w3.org/2000/svg">
<circle cx="30.5" cy="30.5" r="30" fill="#383232" stroke="#FFB300"/>
<path d="M31 13.5C26.3587 13.5 21.9075 15.3437 18.6256 18.6256C15.3437 21.9075 13.5 26.3587 13.5 31C13.5 35.6413 15.3437 40.0925 18.6256 43.3744C21.9075 46.6563 26.3587 48.5 31 48.5C35.6413 48.5 40.0925 46.6563 43.3744 43.3744C46.6563 40.0925 48.5 35.6413 48.5 31C48.5 26.3587 46.6563 21.9075 43.3744 18.6256C40.0925 15.3437 35.6413 13.5 31 13.5ZM11 31C11 25.6957 13.1071 20.6086 16.8579 16.8579C20.6086 13.1071 25.6957 11 31 11C36.3043 11 41.3914 13.1071 45.1421 16.8579C48.8929 20.6086 51 25.6957 51 31C51 36.3043 48.8929 41.3914 45.1421 45.1421C41.3914 48.8929 36.3043 51 31 51C25.6957 51 20.6086 48.8929 16.8579 45.1421C13.1071 41.3914 11 36.3043 11 31Z" fill="#FFB300"/>
<path d="M35.0302 24.638C33.8048 23.8269 32.3672 23.3955 30.8977 23.398C29.3727 23.398 27.9502 23.8555 26.7652 24.638L22.6327 18.378C25.0835 16.7558 27.9586 15.8931 30.8977 15.898C33.9527 15.898 36.7927 16.8105 39.1627 18.378L35.0302 24.638ZM38.3852 30.448C38.4515 31.5134 38.2885 32.5807 37.9073 33.5777C37.5261 34.5748 36.9354 35.4786 36.1752 36.228C35.6111 36.7865 34.9623 37.2522 34.2527 37.608L37.6077 44.3155C39.0327 43.6005 40.3327 42.6655 41.4527 41.558C42.9708 40.0576 44.1504 38.2498 44.9123 36.256C45.6743 34.2622 46.0008 32.1284 45.8702 29.998L38.3852 30.448ZM24.1877 44.318L27.5427 37.608C26.2281 36.9507 25.1356 35.9217 24.4009 34.6488C23.6662 33.3758 23.3217 31.9151 23.4102 30.448L15.9252 29.998C15.7482 32.9321 16.4371 35.8537 17.9065 38.3995C19.3759 40.9454 21.561 43.0035 24.1902 44.318H24.1877ZM35.8977 30.898C35.8977 32.2241 35.3709 33.4958 34.4332 34.4335C33.4955 35.3712 32.2238 35.898 30.8977 35.898C29.5716 35.898 28.2998 35.3712 27.3621 34.4335C26.4245 33.4958 25.8977 32.2241 25.8977 30.898C25.8977 29.5719 26.4245 28.3001 27.3621 27.3624C28.2998 26.4248 29.5716 25.898 30.8977 25.898C32.2238 25.898 33.4955 26.4248 34.4332 27.3624C35.3709 28.3001 35.8977 29.5719 35.8977 30.898Z" fill="#FFB300"/>
</svg>
