<svg width="48" height="48" viewBox="0 0 48 48" fill="none" xmlns="http://www.w3.org/2000/svg">
<ellipse cx="24" cy="24.0274" rx="24" ry="23.8003" fill="#FFB300"/>
<g clip-path="url(#clip0_27_492)">
<path d="M22.6281 13.9055C22.0313 13.9055 21.459 14.1406 21.0371 14.559C20.6151 14.9775 20.3781 15.545 20.3781 16.1368V16.8806H15.1281C14.5313 16.8806 13.959 17.1156 13.5371 17.5341C13.1151 17.9525 12.8781 18.5201 12.8781 19.1118V21.1706L24.2991 24.1902C24.6784 24.2904 25.0777 24.2904 25.4571 24.1902L36.8781 21.1706V19.1118C36.8781 18.5201 36.641 17.9525 36.219 17.5341C35.7971 17.1156 35.2248 16.8806 34.6281 16.8806H29.3781V16.1368C29.3781 15.545 29.141 14.9775 28.719 14.559C28.2971 14.1406 27.7248 13.9055 27.1281 13.9055H22.6281ZM22.6281 15.393H27.1281C27.327 15.393 27.5177 15.4714 27.6584 15.6109C27.799 15.7504 27.8781 15.9395 27.8781 16.1368V16.8806H21.8781V16.1368C21.8781 15.9395 21.9571 15.7504 22.0977 15.6109C22.2384 15.4714 22.4291 15.393 22.6281 15.393V15.393Z" fill="white"/>
<path d="M12.8781 31.0114C12.8781 31.6032 13.1151 32.1707 13.5371 32.5892C13.959 33.0076 14.5313 33.2427 15.1281 33.2427H34.6281C35.2248 33.2427 35.7971 33.0076 36.219 32.5892C36.641 32.1707 36.8781 31.6032 36.8781 31.0114V22.6069L25.0716 25.7263C24.9448 25.7598 24.8113 25.7598 24.6846 25.7263L12.8781 22.6069V31.0114Z" fill="white"/>
</g>
<ellipse cx="24" cy="24.0274" rx="24" ry="23.8003" fill="#FFB300"/>
<path d="M21.375 13.1187C20.6788 13.1187 20.0111 13.3929 19.5188 13.8811C19.0266 14.3693 18.75 15.0314 18.75 15.7218V16.5895H12.625C11.9288 16.5895 11.2611 16.8638 10.7688 17.352C10.2766 17.8402 10 18.5023 10 19.1927V21.5945L23.3245 25.1175C23.7671 25.2344 24.2329 25.2344 24.6755 25.1175L38 21.5945V19.1927C38 18.5023 37.7234 17.8402 37.2312 17.352C36.7389 16.8638 36.0712 16.5895 35.375 16.5895H29.25V15.7218C29.25 15.0314 28.9734 14.3693 28.4812 13.8811C27.9889 13.3929 27.3212 13.1187 26.625 13.1187H21.375ZM21.375 14.8541H26.625C26.8571 14.8541 27.0796 14.9455 27.2437 15.1082C27.4078 15.271 27.5 15.4917 27.5 15.7218V16.5895H20.5V15.7218C20.5 15.4917 20.5922 15.271 20.7563 15.1082C20.9204 14.9455 21.1429 14.8541 21.375 14.8541V14.8541Z" fill="white"/>
<path d="M10 33.0765C10 33.7669 10.2766 34.429 10.7688 34.9172C11.2611 35.4054 11.9288 35.6796 12.625 35.6796H35.375C36.0712 35.6796 36.7389 35.4054 37.2312 34.9172C37.7234 34.429 38 33.7669 38 33.0765V23.2712L24.2257 26.9105C24.0778 26.9496 23.9222 26.9496 23.7742 26.9105L10 23.2712V33.0765Z" fill="white"/>
<defs>
<clipPath id="clip0_27_492">
<rect width="24" height="23.8003" fill="white" transform="translate(12.8781 12.4175)"/>
</clipPath>
</defs>
</svg>
