<svg width="73" height="73" viewBox="0 0 73 73" fill="none" xmlns="http://www.w3.org/2000/svg">
<circle cx="36.5" cy="36.5" r="36.5" fill="#FFB300"/>
<path d="M18.3556 33.0876C18.7151 33.0876 19.0599 33.2081 19.3141 33.4226C19.5683 33.6372 19.7111 33.9282 19.7111 34.2316V39.9514C19.7111 40.5582 19.9967 41.1402 20.5052 41.5692C21.0136 41.9983 21.7032 42.2393 22.4222 42.2393H54.9556C55.6746 42.2393 56.3642 41.9983 56.8726 41.5692C57.381 41.1402 57.6667 40.5582 57.6667 39.9514V34.2316C57.6667 33.9282 57.8095 33.6372 58.0637 33.4226C58.3179 33.2081 58.6627 33.0876 59.0222 33.0876C59.3817 33.0876 59.7265 33.2081 59.9807 33.4226C60.235 33.6372 60.3778 33.9282 60.3778 34.2316V39.9514C60.3778 41.165 59.8065 42.3289 58.7896 43.187C57.7728 44.0452 56.3936 44.5273 54.9556 44.5273H22.4222C20.9842 44.5273 19.605 44.0452 18.5881 43.187C17.5713 42.3289 17 41.165 17 39.9514V34.2316C17 33.9282 17.1428 33.6372 17.397 33.4226C17.6512 33.2081 17.996 33.0876 18.3556 33.0876V33.0876Z" fill="white"/>
<path d="M38.828 33.9163C38.7021 34.0228 38.5525 34.1074 38.3878 34.165C38.2231 34.2227 38.0466 34.2524 37.8683 34.2524C37.69 34.2524 37.5134 34.2227 37.3487 34.165C37.1841 34.1074 37.0345 34.0228 36.9086 33.9163L28.7752 27.0525C28.5207 26.8377 28.3777 26.5463 28.3777 26.2425C28.3777 25.9388 28.5207 25.6474 28.7752 25.4326C29.0298 25.2178 29.375 25.0971 29.735 25.0971C30.0949 25.0971 30.4402 25.2178 30.6947 25.4326L36.5127 30.3448L36.5127 10.227C36.5127 9.92358 36.6556 9.63261 36.9098 9.41807C37.164 9.20353 37.5088 9.08301 37.8683 9.08301C38.2278 9.08301 38.5726 9.20353 38.8268 9.41807C39.081 9.63261 39.2238 9.92358 39.2238 10.227L39.2238 30.3448L45.0419 25.4326C45.1679 25.3263 45.3175 25.2419 45.4822 25.1843C45.6469 25.1268 45.8234 25.0971 46.0016 25.0971C46.1799 25.0971 46.3564 25.1268 46.521 25.1843C46.6857 25.2419 46.8353 25.3263 46.9614 25.4326C47.0874 25.539 47.1874 25.6653 47.2556 25.8042C47.3238 25.9432 47.3589 26.0921 47.3589 26.2426C47.3589 26.393 47.3238 26.5419 47.2556 26.6809C47.1874 26.8198 47.0874 26.9461 46.9614 27.0525L38.828 33.9163Z" fill="white"/>
</svg>
